<?xml version="1.0" standalone="no"?>
<!DOCTYPE svg PUBLIC "-//W3C//DTD SVG 20010904//EN"
 "http://www.w3.org/TR/2001/REC-SVG-20010904/DTD/svg10.dtd">
<svg version="1.0" xmlns="http://www.w3.org/2000/svg"
 width="700.000000pt" height="700.000000pt" viewBox="0 0 700.000000 700.000000"
 preserveAspectRatio="xMidYMid meet">
<metadata>
Created by potrace 1.14, written by Peter Selinger 2001-2017
</metadata>
<g transform="translate(0.000000,700.000000) scale(0.100000,-0.100000)"
fill="#000000" stroke="none">
<path d="M4175 5871 c-42 -11 -106 -45 -134 -72 -40 -38 -54 -86 -59 -214 -5
-149 7 -218 57 -320 44 -88 133 -196 149 -180 5 6 20 41 32 79 25 77 68 131
135 170 51 31 59 50 56 133 -2 54 0 63 19 73 35 19 158 -26 395 -143 553 -273
844 -488 960 -708 87 -166 204 -300 360 -413 230 -167 359 -221 439 -185 40
19 48 87 17 154 -25 52 -69 99 -226 238 -223 197 -312 299 -426 487 -79 130
-142 193 -304 304 -72 49 -166 119 -210 156 -146 124 -281 201 -500 288 -135
54 -335 119 -420 137 -81 18 -296 28 -340 16z"/>
<path d="M1891 5489 c-88 -11 -225 -47 -522 -135 -245 -72 -481 -135 -564
-149 -81 -13 -140 -65 -217 -190 -14 -22 -82 -146 -151 -276 -137 -257 -212
-390 -283 -501 -94 -147 -124 -239 -88 -269 24 -20 115 -23 175 -5 90 26 296
196 446 366 91 102 131 170 138 230 10 84 27 164 40 190 16 31 127 86 363 179
180 72 293 111 321 111 29 0 27 -33 -8 -144 -38 -119 -61 -232 -61 -300 0 -58
13 -106 29 -106 6 0 54 39 107 88 123 112 167 139 327 203 73 29 134 53 136
55 1 1 -6 30 -18 63 -17 49 -21 85 -21 184 0 112 10 251 26 370 l6 47 -59 -1
c-32 -1 -87 -5 -122 -10z"/>
<path d="M3144 5486 c-129 -25 -221 -64 -330 -142 -123 -87 -179 -170 -228
-338 -29 -100 -50 -141 -86 -168 -14 -10 -100 -45 -190 -77 -197 -69 -243 -91
-347 -170 -141 -106 -266 -250 -320 -368 -24 -53 -25 -62 -20 -177 3 -68 13
-145 22 -176 23 -75 31 -333 16 -514 -25 -290 -79 -542 -157 -731 -88 -212
-97 -242 -102 -355 -5 -115 5 -168 40 -220 40 -58 69 -73 156 -78 77 -4 79 -4
114 27 73 64 168 296 202 491 9 52 28 235 42 405 44 543 79 715 157 765 65 42
732 4 917 -51 50 -15 55 -34 65 -204 7 -140 17 -185 46 -211 32 -28 62 -96
102 -224 57 -183 111 -254 211 -281 84 -23 205 9 255 67 38 43 47 92 32 178
-15 90 -53 168 -147 302 -129 183 -139 210 -109 295 23 63 61 109 91 109 47 0
219 -133 303 -235 67 -81 77 -113 305 -927 118 -421 140 -516 186 -798 63
-381 103 -507 175 -546 30 -16 47 -16 195 -7 117 8 165 15 171 24 5 8 9 86 9
174 0 229 -14 282 -257 965 -118 333 -179 492 -251 662 -71 164 -107 281 -148
485 -56 283 -86 350 -260 588 -51 72 -94 136 -94 143 0 7 18 49 40 93 23 44
55 121 71 172 28 81 31 102 27 177 -6 124 -26 160 -190 354 -71 86 -124 190
-144 286 -8 41 -23 89 -32 105 -20 36 -136 97 -226 120 -87 22 -228 27 -312
11z"/>
<path d="M4399 5021 c-114 -37 -135 -133 -84 -391 31 -162 31 -200 -2 -275
-59 -137 -72 -187 -72 -270 0 -87 14 -142 41 -159 22 -13 47 9 81 74 23 43 68
86 207 195 78 61 96 90 113 184 8 40 18 76 23 81 14 14 100 -30 222 -112 252
-171 799 -595 1227 -952 365 -304 507 -395 633 -404 121 -8 162 32 162 160 -1
162 -54 221 -455 503 -272 192 -415 303 -661 517 -353 306 -473 401 -646 509
-62 40 -180 122 -263 184 -209 157 -211 158 -370 162 -71 1 -142 -1 -156 -6z"/>
<path d="M1207 4336 c-124 -45 -276 -213 -380 -421 -19 -39 -61 -134 -92 -210
-79 -194 -135 -310 -195 -410 -145 -240 -254 -569 -359 -1085 -69 -339 -131
-718 -131 -799 0 -35 5 -41 60 -80 32 -23 76 -49 97 -58 46 -19 155 -22 176
-4 24 19 56 95 82 194 35 133 129 602 170 854 49 298 48 292 233 710 118 264
180 430 223 601 40 157 86 191 272 202 13 0 8 34 -19 121 -32 104 -28 148 22
267 59 141 61 132 -37 132 -46 -1 -101 -7 -122 -14z"/>
</g>
</svg>
